<svg width="32" height="32" viewBox="0 0 32 32" fill="none" xmlns="http://www.w3.org/2000/svg">
<path d="M11 26C11.5523 26 12 25.5523 12 25C12 24.4477 11.5523 24 11 24C10.4477 24 10 24.4477 10 25C10 25.5523 10.4477 26 11 26Z" stroke="#3F4949" stroke-width="2" stroke-linecap="round" stroke-linejoin="round"/>
<path d="M24 26C24.5523 26 25 25.5523 25 25C25 24.4477 24.5523 24 24 24C23.4477 24 23 24.4477 23 25C23 25.5523 23.4477 26 24 26Z" stroke="#3F4949" stroke-width="2" stroke-linecap="round" stroke-linejoin="round"/>
<path d="M4 6H7.65217L10.3913 21H25" stroke="#3F4949" stroke-width="2" stroke-linecap="round" stroke-linejoin="round"/>
<path d="M10.8099 18H24.9183C25.0229 18.0001 25.1244 17.9641 25.2053 17.8981C25.2863 17.8322 25.3417 17.7404 25.3623 17.6383L26.9912 9.53831C27.0043 9.473 27.0027 9.4056 26.9865 9.34097C26.9703 9.27634 26.9398 9.21611 26.8974 9.16461C26.8549 9.11311 26.8014 9.07163 26.7409 9.04316C26.6803 9.0147 26.6142 8.99995 26.5472 9H9" stroke="#3F4949" stroke-width="2" stroke-linecap="round" stroke-linejoin="round"/>
</svg>
