<svg width="16" height="16" viewBox="0 0 16 16" fill="none" xmlns="http://www.w3.org/2000/svg">
<path d="M12.3127 15C12.2074 15.0004 12.1047 14.9676 12.0192 14.9062L8.00015 11.9925L3.98109 14.9062C3.89522 14.9685 3.79178 15.0019 3.68571 15.0015C3.57964 15.0011 3.47644 14.967 3.39103 14.9041C3.30562 14.8412 3.24242 14.7528 3.21058 14.6516C3.17874 14.5504 3.1799 14.4417 3.2139 14.3412L4.7814 9.69843L0.718901 6.91249C0.630904 6.85221 0.56449 6.76537 0.529361 6.66466C0.494232 6.56395 0.492229 6.45464 0.523646 6.35271C0.555063 6.25078 0.618253 6.16157 0.703983 6.09811C0.789712 6.03465 0.893489 6.00027 1.00015 5.99999H6.01203L7.52453 1.3453C7.55711 1.24481 7.62069 1.15722 7.70613 1.0951C7.79158 1.03297 7.89451 0.999512 8.00015 0.999512C8.1058 0.999512 8.20872 1.03297 8.29417 1.0951C8.37962 1.15722 8.4432 1.24481 8.47578 1.3453L9.98828 6.00155H15.0002C15.1069 6.0015 15.211 6.03564 15.2969 6.09898C15.3829 6.16232 15.4464 6.25152 15.478 6.35353C15.5096 6.45554 15.5077 6.56499 15.4726 6.66586C15.4375 6.76672 15.3711 6.8537 15.283 6.91405L11.2189 9.69843L12.7855 14.34C12.8108 14.4151 12.818 14.4952 12.8063 14.5737C12.7946 14.6521 12.7644 14.7267 12.7182 14.7912C12.672 14.8557 12.6112 14.9082 12.5406 14.9445C12.4701 14.9808 12.392 14.9998 12.3127 15Z" fill="#E7E8E8"/>
</svg>
