<svg width="16" height="16" viewBox="0 0 16 16" fill="none" xmlns="http://www.w3.org/2000/svg">
<path d="M12.3127 15C12.2074 15.0004 12.1047 14.9676 12.0192 14.9063L8.00015 11.9925L3.98109 14.9063C3.89522 14.9685 3.79178 15.0019 3.68571 15.0015C3.57964 15.0011 3.47644 14.967 3.39103 14.9041C3.30562 14.8412 3.24242 14.7528 3.21058 14.6516C3.17874 14.5504 3.1799 14.4417 3.2139 14.3413L4.7814 9.69844L0.718901 6.9125C0.630904 6.85223 0.56449 6.76539 0.529361 6.66468C0.494232 6.56397 0.492229 6.45466 0.523646 6.35273C0.555063 6.2508 0.618253 6.16159 0.703982 6.09813C0.789712 6.03467 0.893489 6.00028 1.00015 6H6.01203L7.52453 1.34532C7.55711 1.24482 7.62069 1.15723 7.70613 1.09511C7.79158 1.03299 7.89451 0.999527 8.00015 0.999527C8.1058 0.999527 8.20872 1.03299 8.29417 1.09511C8.37962 1.15723 8.44319 1.24482 8.47578 1.34532L9.98828 6.00157H15.0002C15.1069 6.00151 15.211 6.03566 15.2969 6.099C15.3829 6.16233 15.4464 6.25154 15.478 6.35355C15.5096 6.45556 15.5077 6.56501 15.4726 6.66587C15.4375 6.76674 15.3711 6.85371 15.283 6.91407L11.2189 9.69844L12.7855 14.34C12.8108 14.4152 12.818 14.4953 12.8063 14.5737C12.7946 14.6522 12.7644 14.7267 12.7182 14.7912C12.672 14.8557 12.6112 14.9082 12.5406 14.9445C12.4701 14.9809 12.392 14.9999 12.3127 15Z" fill="#E7E8E8"/>
<path d="M3.98109 14.9063L8.00015 11.9925V0.999527C7.89451 0.999527 7.79158 1.03299 7.70613 1.09511C7.62069 1.15723 7.55711 1.24482 7.52453 1.34532L6.01203 6H1.00015C0.893489 6.00028 0.789712 6.03467 0.703982 6.09813C0.618253 6.16159 0.555063 6.2508 0.523646 6.35273C0.492229 6.45466 0.494232 6.56397 0.529361 6.66468C0.56449 6.76539 0.630904 6.85223 0.718901 6.9125L4.7814 9.69844L3.2139 14.3413C3.1799 14.4417 3.17874 14.5504 3.21058 14.6516C3.24242 14.7528 3.30562 14.8412 3.39103 14.9041C3.47644 14.967 3.57964 15.0011 3.68571 15.0015C3.79178 15.0019 3.89522 14.9685 3.98109 14.9063Z" fill="#EDD382"/>
</svg>
