<svg width="12" height="12" viewBox="0 0 12 12" fill="none" xmlns="http://www.w3.org/2000/svg">
<path d="M9.23437 11.2499C9.15544 11.2502 9.07842 11.2256 9.01429 11.1796L5.99999 8.99424L2.98569 11.1796C2.9213 11.2263 2.84371 11.2513 2.76416 11.251C2.6846 11.2507 2.6072 11.2251 2.54315 11.1779C2.47909 11.1308 2.4317 11.0644 2.40781 10.9886C2.38393 10.9127 2.38481 10.8312 2.4103 10.7558L3.58593 7.2737L0.539054 5.18424C0.473056 5.13904 0.423245 5.07391 0.396898 4.99837C0.370552 4.92284 0.36905 4.84086 0.392613 4.76441C0.416175 4.68797 0.463567 4.62106 0.527865 4.57346C0.592162 4.52587 0.669995 4.50008 0.749991 4.49987H4.5089L5.64327 1.00885C5.66771 0.933484 5.71539 0.867791 5.77948 0.821199C5.84356 0.774608 5.92076 0.749512 5.99999 0.749512C6.07922 0.749512 6.15642 0.774608 6.22051 0.821199C6.28459 0.867791 6.33227 0.933484 6.35671 1.00885L7.49109 4.50104H11.25C11.3301 4.501 11.4081 4.52661 11.4726 4.57411C11.5371 4.62162 11.5847 4.68852 11.6084 4.76503C11.6321 4.84153 11.6307 4.92362 11.6044 4.99927C11.578 5.07492 11.5282 5.14015 11.4621 5.18542L8.41405 7.2737L9.58898 10.7549C9.60801 10.8112 9.61337 10.8713 9.6046 10.9302C9.59583 10.989 9.57319 11.0449 9.53854 11.0933C9.5039 11.1416 9.45825 11.181 9.40536 11.2083C9.35247 11.2355 9.29386 11.2498 9.23437 11.2499Z" fill="white"/>
</svg>
